Coordinates
version=1
nRows=7
nColumns=69
inDegrees=yes

Units are S.I. units (second, meters, Newtons, ...)
If the header above contains a line with 'inDegrees', this indicates whether rotational values are in degrees (yes) or radians (no).

endheader
time	pelvis_tilt	pelvis_list	pelvis_rotation	pelvis_tx	pelvis_ty	pelvis_tz	hip_flexion_r	hip_adduction_r	hip_rotation_r	knee_angle_r	knee_angle_r_beta	ankle_angle_r	subtalar_angle_r	mtp_angle_r	hip_flexion_l	hip_adduction_l	hip_rotation_l	knee_angle_l	knee_angle_l_beta	ankle_angle_l	subtalar_angle_l	mtp_angle_l	L5_S1_Flex_Ext	L5_S1_Lat_Bending	L5_S1_axial_rotation	L4_L5_Flex_Ext	L4_L5_Lat_Bending	L4_L5_axial_rotation	L3_L4_Flex_Ext	L3_L4_Lat_Bending	L3_L4_axial_rotation	L2_L3_Flex_Ext	L2_L3_Lat_Bending	L2_L3_axial_rotation	L1_L2_Flex_Ext	L1_L2_Lat_Bending	L1_L2_axial_rotation	L1_T12_Flex_Ext	L1_T12_Lat_Bending	L1_T12_axial_rotation	Abs_r3	Abs_r2	Abs_r1	Abs_t1	Abs_t2	neck_flexion	neck_bending	neck_rotation	sh_tx_r	sh_ty_r	sh_tz_r	sh_plane_elev_r	sh_elev_r	sh_axial_rot_r	elbow_flex_r	pro_sup_r	wrist_flex_r	wrist_dev_r	sh_tx_l	sh_ty_l	sh_tz_l	sh_plane_elev_l	sh_elev_l	sh_axial_rot_l	elbow_flex_l	pro_sup_l	wrist_flex_l	wrist_dev_l
      0.81666670	    -34.01707098	      8.94125903	    -87.04263541	     -0.11222621	      0.92223776	     -1.03961769	     39.38541424	    -18.22557343	    -11.54633701	     32.80287574	      0.57251819	      0.89675418	      4.76955368	      0.00000000	     43.18344390	    -28.51337533	     28.21910381	     59.82686166	      1.04417572	     28.34048572	    -10.09221407	      0.00000000	     -0.05092953	     -1.54467322	     -0.39467795	     -0.09458123	     -2.05441539	     -0.41934533	     -0.08367213	     -3.75571848	     -0.41934533	     -0.05820736	     -3.75571848	     -0.34534321	     -0.04729316	     -3.14989764	     -0.32067584	     -0.02910113	     -2.39269882	     -0.29600846	     -0.36378454	    -17.47365244	     -2.19508037	      0.00000000	      0.00000000	      0.00000000	      0.00000000	      0.00000000	      0.03455129	     -0.01525923	     -0.00241479	    -15.58804662	     41.24197356	    -41.24096496	    116.85451878	     89.99559364	      0.00000000	      0.00000000	      0.01576051	     -0.01777362	     -0.00183783	     -2.62723003	     49.22950839	     -9.61856859	     36.25982426	     89.99559364	      0.00000000	      0.00000000
      0.83333330	    -34.02272056	      9.92562845	    -86.53435176	     -0.11434662	      0.92285618	     -1.03946719	     41.53515314	    -17.95011102	    -10.93670836	     33.25031701	      0.58032751	      1.19834734	      4.16828115	      0.00000000	     44.18111392	    -28.39015715	     28.56077287	     59.03637826	      1.03037918	     28.48304199	     -9.62730081	      0.00000000	     -0.05316240	     -1.55956575	     -0.45107947	     -0.09872790	     -2.07422245	     -0.47927194	     -0.08734051	     -3.79192817	     -0.47927194	     -0.06075931	     -3.79192817	     -0.39469454	     -0.04936661	     -3.18026648	     -0.36650207	     -0.03037700	     -2.41576735	     -0.33830960	     -0.37973374	    -17.64211970	     -2.50876869	      0.00000000	      0.00000000	      0.00000000	      0.00000000	      0.00000000	      0.03521459	     -0.01461882	     -0.00253529	    -12.82674403	     41.48280652	    -43.23057294	    118.34823353	     89.99559364	      0.00000000	      0.00000000	      0.01567517	     -0.01756914	     -0.00192384	     -2.42492151	     49.99803937	    -10.65479312	     36.78032466	     89.99559364	      0.00000000	      0.00000000
      0.85000000	    -34.01584232	     10.97491039	    -86.00854093	     -0.11590642	      0.92376506	     -1.03858868	     43.65669287	    -17.56771141	    -10.75217951	     33.87032711	      0.59114873	      1.49201416	      3.81581705	      0.00000000	     45.06747631	    -28.29020135	     28.86216914	     58.04059234	      1.01299944	     28.43215068	     -9.33031006	      0.00000000	     -0.05576181	     -1.57093994	     -0.40695164	     -0.10355526	     -2.08935012	     -0.43238612	     -0.09161108	     -3.81958338	     -0.43238612	     -0.06373018	     -3.81958338	     -0.35608269	     -0.05178042	     -3.20346073	     -0.33064821	     -0.03186230	     -2.43338597	     -0.30521373	     -0.39830105	    -17.77078682	     -2.26334294	      0.00000000	      0.00000000	      0.00000000	      0.00000000	      0.00000000	      0.03599039	     -0.01382268	     -0.00263407	    -11.84685665	     41.91937305	    -44.10842131	    120.04569780	     89.99559364	      0.00000000	      0.00000000	      0.01758258	     -0.01741379	     -0.00204921	     -1.84973926	     50.75075314	    -10.75634721	     37.47669484	     89.99559364	      0.00000000	      0.00000000
      0.86666670	    -33.78963719	     11.96298576	    -85.58093757	     -0.11700312	      0.92518192	     -1.03672489	     45.61591445	    -17.17131712	    -10.77709275	     34.63004223	      0.60440826	      1.78148885	      3.61459724	      0.00000000	     45.50902832	    -28.15631289	     28.79796390	     56.77789242	      0.99096117	     28.40738987	     -8.90763001	      0.00000000	     -0.05745845	     -1.59903987	     -0.40975637	     -0.10670608	     -2.12672303	     -0.43536614	     -0.09439848	     -3.88790555	     -0.43536614	     -0.06566926	     -3.88790555	     -0.35853682	     -0.05335591	     -3.26076211	     -0.33292705	     -0.03283176	     -2.47691276	     -0.30731728	     -0.41041995	    -18.08865886	     -2.27894200	      0.00000000	      0.00000000	      0.00000000	      0.00000000	      0.00000000	      0.03690586	     -0.01290664	     -0.00263646	    -10.45499010	     41.88134792	    -45.56878433	    122.02718044	     89.99559364	      0.00000000	      0.00000000	      0.01860537	     -0.01721342	     -0.00214351	     -1.62879745	     51.35558593	    -11.35950499	     38.01700890	     89.99559364	      0.00000000	      0.00000000
      0.88333330	    -33.48355659	     12.80822699	    -85.24222307	     -0.11795739	      0.92679605	     -1.03373926	     47.29812131	    -16.63636641	    -11.17189541	     35.57633640	      0.62092421	      2.35381851	      3.64874775	      0.00000000	     45.55068138	    -28.08787735	     28.54218849	     55.40821288	      0.96705575	     28.26568212	     -8.41635385	      0.00000000	     -0.05784474	     -1.62783932	     -0.37662864	     -0.10742346	     -2.16502629	     -0.40016793	     -0.09503312	     -3.95792851	     -0.40016793	     -0.06611075	     -3.95792851	     -0.32955006	     -0.05371462	     -3.31948993	     -0.30601077	     -0.03305248	     -2.52152310	     -0.28247148	     -0.41317917	    -18.41444391	     -2.09469549	      0.00000000	      0.00000000	      0.00000000	      0.00000000	      0.00000000	      0.03636749	     -0.01226583	     -0.00274415	     -9.43425211	     42.23647790	    -46.11412629	    123.68623211	     89.99559364	      0.00000000	      0.00000000	      0.01901356	     -0.01711249	     -0.00219796	     -1.24002040	     51.84691578	    -11.53139697	     38.59714088	     89.99559364	      0.00000000	      0.00000000
      0.90000000	    -32.65917447	     13.51670514	    -85.14867017	     -0.11907748	      0.92876952	     -1.02938877	     48.84984349	    -16.25145028	    -11.57432026	     36.80767009	      0.64241503	      3.27400713	      4.18490579	      0.00000000	     44.91275379	    -27.79621901	     27.60312477	     53.85903500	      0.94001749	     28.12803259	     -7.95728081	      0.00000000	     -0.05858049	     -1.71149847	     -0.38292372	     -0.10878983	     -2.27629297	     -0.40685645	     -0.09624189	     -4.16133739	     -0.40685645	     -0.06695165	     -4.16133739	     -0.33505825	     -0.05439785	     -3.49008769	     -0.31112552	     -0.03347289	     -2.65111114	     -0.28719279	     -0.41843460	    -19.36081305	     -2.12970684	      0.00000000	      0.00000000	      0.00000000	      0.00000000	      0.00000000	      0.03702881	     -0.01173695	     -0.00273131	     -8.39006421	     41.91507798	    -46.91825718	    125.68146260	     89.99559364	      0.00000000	      0.00000000	      0.01885426	     -0.01693388	     -0.00227129	     -1.27543165	     52.39998856	    -11.94222965	     38.94741373	     89.99559364	      0.00000000	      0.00000000
      0.91666670	    -31.64310744	     14.05839859	    -85.28678623	     -0.12045468	      0.93080045	     -1.02342030	     50.14871729	    -15.62686170	    -11.99179282	     38.14880833	      0.66582231	      4.44302605	      4.81734720	      0.00000000	     43.81666556	    -27.50509930	     26.31139951	     52.33513385	      0.91342040	     27.80479331	     -7.75516476	      0.00000000	     -0.05746959	     -1.81309370	     -0.35054715	     -0.10672678	     -2.41141463	     -0.37245635	     -0.09441680	     -4.40835603	     -0.37245635	     -0.06568200	     -4.40835603	     -0.30672876	     -0.05336627	     -3.69726068	     -0.28481956	     -0.03283813	     -2.80848215	     -0.26291037	     -0.41049957	    -20.51007860	     -1.94963811	      0.00000000	      0.00000000	      0.00000000	      0.00000000	      0.00000000	      0.03631062	     -0.01187391	     -0.00271301	     -7.48130697	     41.64707529	    -47.20388564	    127.55297859	     89.99559364	      0.00000000	      0.00000000	      0.01815790	     -0.01689169	     -0.00228762	     -1.28295990	     52.99835076	    -12.13021206	     39.33261770	     89.99559364	      0.00000000	      0.00000000
